<?xml version="1.0" encoding="iso-8859-1"?>
<!-- Uploaded to: SVG Repo, www.svgrepo.com, Generator: SVG Repo Mixer Tools -->
<!DOCTYPE svg PUBLIC "-//W3C//DTD SVG 1.1//EN" "http://www.w3.org/Graphics/SVG/1.1/DTD/svg11.dtd">
<svg fill="#000000" version="1.1" id="Capa_1" xmlns="http://www.w3.org/2000/svg" xmlns:xlink="http://www.w3.org/1999/xlink" 
	 width="800px" height="800px" viewBox="0 0 480 480" xml:space="preserve">
<g>
	<path d="M480,88H0v304h480V88z M240,381.1l-194-141l194-141l194,141L240,381.1z"/>
	<path d="M174.8,174.6c57.5,17,110.4,49.3,151.7,92.801c2.7-8.601,4.1-17.801,4.1-27.301c0-50.6-41-91.7-91.7-91.7
		C214,148.4,191.3,158.4,174.8,174.6z"/>
	<path d="M160.4,192.8c-8.3,13.8-13.1,30-13.1,47.3c0,50.6,41,91.7,91.7,91.7c32.9,0,61.7-17.3,77.9-43.399
		C275.1,242.199,220.6,208.8,160.4,192.8z"/>
</g>
</svg>